<svg xmlns="http://www.w3.org/2000/svg" viewBox="0 0 900 560" font-family="Helvetica, Arial, sans-serif" font-size="13">
<defs><marker id="arrow" markerWidth="10" markerHeight="10" refX="8" refY="3" orient="auto" markerUnits="strokeWidth"><path d="M0,0 L8,3 L0,6 Z" fill="#5f6368"/></marker></defs>
<rect x="0" y="0" width="900" height="560" fill="#ffffff"/>
<text x="24" y="34" font-size="20" font-weight="700" fill="#202124">System Context</text>
<text x="24" y="54" font-size="12" fill="#5f6368">Actors and external systems around the quant-engine. Evidence: README.md, crates/cli, crates/server, crates/server/src/auth, crates/ingest</text>
<rect x="40" y="80" width="220" height="200" rx="10" fill="none" stroke="#9aa0a6" stroke-width="1.5" stroke-dasharray="6 4" opacity="0.9"/>
<text x="52" y="100" font-size="12" font-weight="700" fill="#9aa0a6" letter-spacing="0.5">ACTORS</text>
<rect x="320" y="80" width="300" height="420" rx="10" fill="none" stroke="#9aa0a6" stroke-width="1.5" stroke-dasharray="6 4" opacity="0.9"/>
<text x="332" y="100" font-size="12" font-weight="700" fill="#9aa0a6" letter-spacing="0.5">QUANT-ENGINE (SINGLE REPO)</text>
<rect x="680" y="80" width="190" height="320" rx="10" fill="none" stroke="#9aa0a6" stroke-width="1.5" stroke-dasharray="6 4" opacity="0.9"/>
<text x="692" y="100" font-size="12" font-weight="700" fill="#9aa0a6" letter-spacing="0.5">EXTERNAL SYSTEMS</text>
<line x1="230" y1="147" x2="350" y2="147" stroke="#5f6368" stroke-width="1.6" marker-end="url(#arrow)"/>
<rect x="267.5" y="137.0" width="45" height="18" rx="4" fill="#ffffff" stroke="#dadce0"/>
<text x="290.0" y="150.0" font-size="11" fill="#3c4043" text-anchor="middle">HTTPS</text>
<line x1="230" y1="227" x2="350" y2="315" stroke="#5f6368" stroke-width="1.6" marker-end="url(#arrow)"/>
<rect x="274.5" y="261.0" width="31" height="18" rx="4" fill="#ffffff" stroke="#dadce0"/>
<text x="290.0" y="274.0" font-size="11" fill="#3c4043" text-anchor="middle">CLI</text>
<line x1="590" y1="230" x2="700" y2="150" stroke="#5f6368" stroke-width="1.6" marker-end="url(#arrow)"/>
<rect x="622.5" y="180.0" width="45" height="18" rx="4" fill="#ffffff" stroke="#dadce0"/>
<text x="645.0" y="193.0" font-size="11" fill="#3c4043" text-anchor="middle">OAuth</text>
<line x1="475" y1="260" x2="475" y2="290" stroke="#5f6368" stroke-width="1.6" marker-end="url(#arrow)"/>
<rect x="449.0" y="265.0" width="52" height="18" rx="4" fill="#ffffff" stroke="#dadce0"/>
<text x="475.0" y="278.0" font-size="11" fill="#3c4043" text-anchor="middle">spawns</text>
<line x1="475" y1="350" x2="475" y2="390" stroke="#5f6368" stroke-width="1.6" marker-end="url(#arrow)"/>
<rect x="428.0" y="360.0" width="94" height="18" rx="4" fill="#ffffff" stroke="#dadce0"/>
<text x="475.0" y="373.0" font-size="11" fill="#3c4043" text-anchor="middle">reads/writes</text>
<line x1="590" y1="320" x2="700" y2="250" stroke="#5f6368" stroke-width="1.6" stroke-dasharray="5 4" marker-end="url(#arrow)"/>
<rect x="594.5" y="275.0" width="101" height="18" rx="4" fill="#ffffff" stroke="#dadce0"/>
<text x="645.0" y="288.0" font-size="11" fill="#3c4043" text-anchor="middle">ingest (opt.)</text>
<rect x="70" y="120" width="160" height="54" rx="7" fill="#ffffff" stroke="#3c4043" stroke-width="1.6"/>
<text x="150.0" y="143.0" font-family="Helvetica, Arial, sans-serif" font-size="12.5" font-weight="600" fill="#202124" text-anchor="middle">Admin user</text>
<text x="150.0" y="159.0" font-family="'JetBrains Mono', Menlo, Consolas, monospace" font-size="10.5" fill="#5f6368" text-anchor="middle">browser</text>
<rect x="70" y="200" width="160" height="54" rx="7" fill="#ffffff" stroke="#3c4043" stroke-width="1.6"/>
<text x="150.0" y="223.0" font-family="Helvetica, Arial, sans-serif" font-size="12.5" font-weight="600" fill="#202124" text-anchor="middle">Developer / operator</text>
<text x="150.0" y="239.0" font-family="'JetBrains Mono', Menlo, Consolas, monospace" font-size="10.5" fill="#5f6368" text-anchor="middle">shell</text>
<rect x="350" y="120" width="240" height="54" rx="7" fill="#e8f0fe" stroke="#3b6fd4" stroke-width="1.6"/>
<text x="470.0" y="143.0" font-family="Helvetica, Arial, sans-serif" font-size="12.5" font-weight="600" fill="#202124" text-anchor="middle">Admin SPA</text>
<text x="470.0" y="159.0" font-family="'JetBrains Mono', Menlo, Consolas, monospace" font-size="10.5" fill="#5f6368" text-anchor="middle">web/  (Vite+React)</text>
<rect x="350" y="200" width="240" height="60" rx="7" fill="#e6f4ea" stroke="#2f8f4e" stroke-width="1.6"/>
<text x="470.0" y="226.0" font-family="Helvetica, Arial, sans-serif" font-size="12.5" font-weight="600" fill="#202124" text-anchor="middle">qe-server</text>
<text x="470.0" y="242.0" font-family="'JetBrains Mono', Menlo, Consolas, monospace" font-size="10.5" fill="#5f6368" text-anchor="middle">axum API + static host</text>
<rect x="350" y="290" width="240" height="60" rx="7" fill="#e6f4ea" stroke="#2f8f4e" stroke-width="1.6"/>
<text x="470.0" y="316.0" font-family="Helvetica, Arial, sans-serif" font-size="12.5" font-weight="600" fill="#202124" text-anchor="middle">qe-cli (qe)</text>
<text x="470.0" y="332.0" font-family="'JetBrains Mono', Menlo, Consolas, monospace" font-size="10.5" fill="#5f6368" text-anchor="middle">train / backtest / ingest</text>
<rect x="350" y="390" width="240" height="62" rx="7" fill="#fef7e0" stroke="#c58a1a" stroke-width="1.6"/>
<text x="470.0" y="417.0" font-family="Helvetica, Arial, sans-serif" font-size="12.5" font-weight="600" fill="#202124" text-anchor="middle">Local state</text>
<text x="470.0" y="433.0" font-family="'JetBrains Mono', Menlo, Consolas, monospace" font-size="10.5" fill="#5f6368" text-anchor="middle">LMDB + vintages + runs/</text>
<rect x="700" y="120" width="150" height="60" rx="7" fill="#fce8e6" stroke="#c5382b" stroke-width="1.6"/>
<text x="775.0" y="146.0" font-family="Helvetica, Arial, sans-serif" font-size="12.5" font-weight="600" fill="#202124" text-anchor="middle">Google OAuth</text>
<text x="775.0" y="162.0" font-family="'JetBrains Mono', Menlo, Consolas, monospace" font-size="10.5" fill="#5f6368" text-anchor="middle">accounts.google.com</text>
<rect x="700" y="210" width="150" height="74" rx="7" fill="#fce8e6" stroke="#c5382b" stroke-width="1.6"/>
<text x="775.0" y="243.0" font-family="Helvetica, Arial, sans-serif" font-size="12.5" font-weight="600" fill="#202124" text-anchor="middle">Binance</text>
<text x="775.0" y="259.0" font-family="'JetBrains Mono', Menlo, Consolas, monospace" font-size="10.5" fill="#5f6368" text-anchor="middle">data.binance.vision
REST/WSS (http feat.)</text>
<rect x="700" y="420" width="150" height="60" rx="7" fill="#f1f3f4" stroke="#5f6368" stroke-width="1.6"/>
<text x="775.0" y="446.0" font-family="Helvetica, Arial, sans-serif" font-size="12.5" font-weight="600" fill="#202124" text-anchor="middle">Live venue path</text>
<text x="775.0" y="462.0" font-family="'JetBrains Mono', Menlo, Consolas, monospace" font-size="10.5" fill="#5f6368" text-anchor="middle">not reachable from
server (firewall)</text>
</svg>