<svg xmlns="http://www.w3.org/2000/svg" viewBox="0 0 1000 540" font-family="Helvetica, Arial, sans-serif" font-size="13">
<defs><marker id="arrow" markerWidth="10" markerHeight="10" refX="8" refY="3" orient="auto" markerUnits="strokeWidth"><path d="M0,0 L8,3 L0,6 Z" fill="#5f6368"/></marker></defs>
<rect x="0" y="0" width="1000" height="540" fill="#ffffff"/>
<text x="24" y="34" font-size="20" font-weight="700" fill="#202124">Core Request Flow — Trigger &amp; Monitor a Backtest</text>
<text x="24" y="54" font-size="12" fill="#5f6368">Evidence: web/src/app/backtest, crates/server/src/runs, crates/cli/src/jobs/backtest.rs</text>
<line x1="180" y1="140" x2="210" y2="140" stroke="#5f6368" stroke-width="1.6" marker-end="url(#arrow)"/>
<line x1="370" y1="140" x2="400" y2="140" stroke="#5f6368" stroke-width="1.6" marker-end="url(#arrow)"/>
<rect x="366.0" y="130.0" width="38" height="18" rx="4" fill="#ffffff" stroke="#dadce0"/>
<text x="385.0" y="143.0" font-size="11" fill="#3c4043" text-anchor="middle">JSON</text>
<line x1="480" y1="170" x2="480" y2="210" stroke="#5f6368" stroke-width="1.6" marker-end="url(#arrow)"/>
<line x1="480" y1="270" x2="480" y2="310" stroke="#5f6368" stroke-width="1.6" marker-end="url(#arrow)"/>
<rect x="457.5" y="280.0" width="45" height="18" rx="4" fill="#ffffff" stroke="#dadce0"/>
<text x="480.0" y="293.0" font-size="11" fill="#3c4043" text-anchor="middle">spawn</text>
<line x1="560" y1="340" x2="610" y2="340" stroke="#5f6368" stroke-width="1.6" marker-end="url(#arrow)"/>
<rect x="566.0" y="330.0" width="38" height="18" rx="4" fill="#ffffff" stroke="#dadce0"/>
<text x="585.0" y="343.0" font-size="11" fill="#3c4043" text-anchor="middle">argv</text>
<line x1="790" y1="340" x2="830" y2="345" stroke="#5f6368" stroke-width="1.6" marker-end="url(#arrow)"/>
<line x1="700" y1="310" x2="700" y2="264" stroke="#5f6368" stroke-width="1.6" marker-end="url(#arrow)"/>
<rect x="660.0" y="277.0" width="80" height="18" rx="4" fill="#ffffff" stroke="#dadce0"/>
<text x="700.0" y="290.0" font-size="11" fill="#3c4043" text-anchor="middle">tail JSON→</text>
<line x1="830" y1="300" x2="900" y2="264" stroke="#5f6368" stroke-width="1.6" marker-end="url(#arrow)"/>
<rect x="842.5" y="272.0" width="45" height="18" rx="4" fill="#ffffff" stroke="#dadce0"/>
<text x="865.0" y="285.0" font-size="11" fill="#3c4043" text-anchor="middle">write</text>
<line x1="610" y1="235" x2="370" y2="320" stroke="#5f6368" stroke-width="1.6" stroke-dasharray="5 4" marker-end="url(#arrow)"/>
<rect x="446.5" y="267.5" width="87" height="18" rx="4" fill="#ffffff" stroke="#dadce0"/>
<text x="490.0" y="280.5" font-size="11" fill="#3c4043" text-anchor="middle">poll status</text>
<line x1="700" y1="235" x2="290" y2="430" stroke="#5f6368" stroke-width="1.6" stroke-dasharray="5 4" marker-end="url(#arrow)"/>
<rect x="469.0" y="322.5" width="52" height="18" rx="4" fill="#ffffff" stroke="#dadce0"/>
<text x="495.0" y="335.5" font-size="11" fill="#3c4043" text-anchor="middle">result</text>
<line x1="290" y1="384" x2="290" y2="430" stroke="#5f6368" stroke-width="1.6" marker-end="url(#arrow)"/>
<rect x="40" y="110" width="140" height="54" rx="7" fill="#ffffff" stroke="#3c4043" stroke-width="1.6"/>
<text x="110.0" y="133.0" font-family="Helvetica, Arial, sans-serif" font-size="12.5" font-weight="600" fill="#202124" text-anchor="middle">User</text>
<text x="110.0" y="149.0" font-family="'JetBrains Mono', Menlo, Consolas, monospace" font-size="10.5" fill="#5f6368" text-anchor="middle">New backtest</text>
<rect x="210" y="110" width="160" height="60" rx="7" fill="#e8f0fe" stroke="#3b6fd4" stroke-width="1.6"/>
<text x="290.0" y="136.0" font-family="Helvetica, Arial, sans-serif" font-size="12.5" font-weight="600" fill="#202124" text-anchor="middle">NewBacktest</text>
<text x="290.0" y="152.0" font-family="'JetBrains Mono', Menlo, Consolas, monospace" font-size="10.5" fill="#5f6368" text-anchor="middle">createRun(params)</text>
<rect x="400" y="110" width="160" height="60" rx="7" fill="#e6f4ea" stroke="#2f8f4e" stroke-width="1.6"/>
<text x="480.0" y="136.0" font-family="Helvetica, Arial, sans-serif" font-size="12.5" font-weight="600" fill="#202124" text-anchor="middle">POST /api/runs</text>
<text x="480.0" y="152.0" font-family="'JetBrains Mono', Menlo, Consolas, monospace" font-size="10.5" fill="#5f6368" text-anchor="middle">require_session</text>
<rect x="400" y="210" width="160" height="60" rx="7" fill="#e6f4ea" stroke="#2f8f4e" stroke-width="1.6"/>
<text x="480.0" y="236.0" font-family="Helvetica, Arial, sans-serif" font-size="12.5" font-weight="600" fill="#202124" text-anchor="middle">RunManager.create</text>
<text x="480.0" y="252.0" font-family="'JetBrains Mono', Menlo, Consolas, monospace" font-size="10.5" fill="#5f6368" text-anchor="middle">validate → 201 {id}</text>
<rect x="400" y="310" width="160" height="60" rx="7" fill="#e8eaed" stroke="#3c4043" stroke-width="1.6"/>
<text x="480.0" y="336.0" font-family="Helvetica, Arial, sans-serif" font-size="12.5" font-weight="600" fill="#202124" text-anchor="middle">worker-pool slot</text>
<text x="480.0" y="352.0" font-family="'JetBrains Mono', Menlo, Consolas, monospace" font-size="10.5" fill="#5f6368" text-anchor="middle">queued→running</text>
<rect x="610" y="310" width="180" height="60" rx="7" fill="#f1f3f4" stroke="#5f6368" stroke-width="1.6"/>
<text x="700.0" y="336.0" font-family="Helvetica, Arial, sans-serif" font-size="12.5" font-weight="600" fill="#202124" text-anchor="middle">qe-cli backtest</text>
<text x="700.0" y="352.0" font-family="'JetBrains Mono', Menlo, Consolas, monospace" font-size="10.5" fill="#5f6368" text-anchor="middle">--run-dir --json</text>
<rect x="830" y="310" width="140" height="84" rx="7" fill="#e8eaed" stroke="#3c4043" stroke-width="1.6"/>
<text x="900.0" y="348.0" font-family="Helvetica, Arial, sans-serif" font-size="12.5" font-weight="600" fill="#202124" text-anchor="middle">backtest job</text>
<text x="900.0" y="364.0" font-family="'JetBrains Mono', Menlo, Consolas, monospace" font-size="10.5" fill="#5f6368" text-anchor="middle">load vintage
sim over window</text>
<rect x="610" y="210" width="180" height="54" rx="7" fill="#fef7e0" stroke="#c58a1a" stroke-width="1.6"/>
<text x="700.0" y="233.0" font-family="Helvetica, Arial, sans-serif" font-size="12.5" font-weight="600" fill="#202124" text-anchor="middle">meta.json</text>
<text x="700.0" y="249.0" font-family="'JetBrains Mono', Menlo, Consolas, monospace" font-size="10.5" fill="#5f6368" text-anchor="middle">status+progress</text>
<rect x="830" y="210" width="140" height="54" rx="7" fill="#fef7e0" stroke="#c58a1a" stroke-width="1.6"/>
<text x="900.0" y="233.0" font-family="Helvetica, Arial, sans-serif" font-size="12.5" font-weight="600" fill="#202124" text-anchor="middle">result.json</text>
<text x="900.0" y="249.0" font-family="'JetBrains Mono', Menlo, Consolas, monospace" font-size="10.5" fill="#5f6368" text-anchor="middle">§8.1 contract</text>
<rect x="210" y="310" width="160" height="74" rx="7" fill="#e8f0fe" stroke="#3b6fd4" stroke-width="1.6"/>
<text x="290.0" y="343.0" font-family="Helvetica, Arial, sans-serif" font-size="12.5" font-weight="600" fill="#202124" text-anchor="middle">BacktestResult</text>
<text x="290.0" y="359.0" font-family="'JetBrains Mono', Menlo, Consolas, monospace" font-size="10.5" fill="#5f6368" text-anchor="middle">poll GET /runs/:id
every 2s</text>
<rect x="210" y="430" width="160" height="54" rx="7" fill="#e8f0fe" stroke="#3b6fd4" stroke-width="1.6"/>
<text x="290.0" y="453.0" font-family="Helvetica, Arial, sans-serif" font-size="12.5" font-weight="600" fill="#202124" text-anchor="middle">render metrics/charts</text>
<text x="290.0" y="469.0" font-family="'JetBrains Mono', Menlo, Consolas, monospace" font-size="10.5" fill="#5f6368" text-anchor="middle">GET /runs/:id/result</text>
</svg>